<svg xmlns="http://www.w3.org/2000/svg" xmlns:v="https://svgstorm.com"
viewBox = "0 0 347 147"
width="347"
height="147">
<g fill="None" fill-opacity="0.0" stroke="#000000" stroke-opacity="0.00" stroke-width="0.3"><path d="
M 0.00 147.00 
L 347.00 147.00
L 347.00 0.00
L 0.00 0.00
L 0.00 147.00
M 224.00 18.00 
C 218.32 23.37 215.01 31.20 210.00 37.00
C 207.54 33.38 215.14 21.98 206.00 24.00
C 209.72 16.97 215.35 10.65 220.00 4.00
C 221.94 8.46 215.31 18.06 224.00 18.00
M 45.00 101.00 
C 42.93 113.25 50.41 130.26 36.00 137.00
C 31.77 138.98 18.04 139.46 14.00 137.00
C 12.91 136.34 11.79 133.96 11.00 133.00
C 5.06 126.82 5.13 119.88 6.00 111.00 C 6.87 102.12 4.74 91.61 6.00 83.00 C 7.26 74.39 3.04 63.19 7.00 56.00
C 7.35 55.36 7.64 54.59 8.00 54.00
C 9.27 51.91 12.62 47.71 15.00 47.00
C 22.44 44.77 35.79 48.63 43.00 47.00 C 50.21 45.37 59.53 51.64 59.00 59.00 C 58.47 66.37 61.27 79.78 58.67 86.67 C 56.07 93.56 47.36 93.22 45.00 101.00
M 65.00 138.00 
C 62.77 126.17 65.58 118.88 74.70 112.70 C 83.81 106.51 77.44 91.87 79.00 82.00 C 80.56 72.13 77.83 57.32 79.00 47.00
C 91.45 49.48 104.76 42.91 116.25 48.75 C 127.73 54.60 123.04 69.07 124.00 80.00 C 124.96 90.93 108.94 94.06 110.00 105.00 C 111.06 115.94 112.81 130.41 102.25 136.25 C 91.68 142.09 76.64 135.52 65.00 138.00
M 130.00 138.00 
C 127.77 126.17 130.58 118.88 139.70 112.70 C 148.81 106.51 142.44 91.87 144.00 82.00 C 145.56 72.13 142.83 57.32 144.00 47.00
C 156.45 49.48 169.76 42.91 181.25 48.75 C 192.73 54.60 188.04 69.07 189.00 80.00 C 189.96 90.93 173.94 94.06 175.00 105.00 C 176.06 115.94 177.81 130.41 167.25 136.25 C 156.68 142.09 141.64 135.52 130.00 138.00
M 221.00 48.00 
C 223.66 51.80 219.98 60.05 221.00 65.00 C 222.02 69.95 220.74 77.62 221.00 83.00 C 221.26 88.38 221.34 95.61 221.00 101.00 C 220.66 106.39 222.16 114.01 221.00 119.00 C 219.84 123.99 223.75 133.07 221.00 137.00
C 219.66 138.91 208.30 138.85 207.00 137.00
C 204.34 133.20 208.02 124.95 207.00 120.00 C 205.98 115.05 207.26 107.38 207.00 102.00 C 206.74 96.62 206.66 89.39 207.00 84.00 C 207.34 78.61 205.84 70.99 207.00 66.00 C 208.16 61.01 204.25 51.93 207.00 48.00
C 208.34 46.09 219.70 46.15 221.00 48.00
M 280.00 48.00 
C 281.88 50.68 278.59 56.99 280.00 60.00
C 275.00 60.00 270.00 60.00 265.00 60.00
C 265.00 85.67 265.00 111.33 265.00 137.00
C 263.66 138.91 252.30 138.85 251.00 137.00
C 248.01 132.73 252.35 123.42 251.00 118.00 C 249.65 112.58 251.62 104.96 251.00 99.00 C 250.38 93.04 251.31 86.26 251.00 80.00 C 250.69 73.74 251.23 66.36 251.00 60.00
C 246.00 60.00 241.00 60.00 236.00 60.00
C 236.00 56.00 236.00 52.00 236.00 48.00
C 238.20 44.86 253.98 47.02 258.00 47.00 C 262.02 46.98 277.83 44.91 280.00 48.00
M 303.00 48.00 
C 306.26 50.90 305.24 59.22 307.93 63.07 C 310.61 66.93 310.22 73.96 313.00 78.00
C 315.40 70.40 318.94 65.94 320.32 57.32 C 321.71 48.70 328.08 44.18 338.00 47.00
C 333.41 61.28 329.98 72.85 324.07 87.07 C 318.17 101.30 320.14 120.94 320.00 137.00
C 318.52 139.11 307.59 138.66 306.00 137.00
C 304.78 123.56 308.03 109.32 306.00 96.00
C 304.55 90.88 301.63 85.85 300.23 80.77 C 298.83 75.69 295.56 69.29 294.68 64.32 C 293.80 59.35 287.75 52.88 289.00 48.00
C 289.33 46.72 300.56 45.83 303.00 48.00 Z"/>
</g>
<g fill="None" fill-opacity="0.0" stroke="#060606" stroke-opacity="1.00" stroke-width="0.3"><path d="
M 224.00 18.00 
C 215.31 18.06 221.94 8.46 220.00 4.00
C 215.35 10.65 209.72 16.97 206.00 24.00
C 215.14 21.98 207.54 33.38 210.00 37.00
C 215.01 31.20 218.32 23.37 224.00 18.00 Z"/>
</g>
<g fill="None" fill-opacity="0.0" stroke="#989898" stroke-opacity="1.00" stroke-width="0.3"><path d="
M 8.00 54.00 
C 9.20 52.71 13.67 47.49 15.00 47.00
C 12.62 47.71 9.27 51.91 8.00 54.00 Z"/>
</g>
<g fill="None" fill-opacity="0.0" stroke="#000000" stroke-opacity="1.00" stroke-width="0.3"><path d="
M 8.00 54.00 
C 7.64 54.59 7.35 55.36 7.00 56.00
C 4.51 67.72 7.32 84.18 7.00 96.00 C 6.68 107.82 3.66 124.05 11.00 133.00
C 11.79 133.96 12.91 136.34 14.00 137.00
C 17.52 138.45 32.42 138.32 36.00 137.00
C 49.19 132.13 42.15 110.37 45.00 101.00
C 47.36 93.22 56.07 93.56 58.67 86.67 C 61.27 79.78 58.47 66.37 59.00 59.00 C 59.53 51.64 50.21 45.37 43.00 47.00 C 35.79 48.63 22.44 44.77 15.00 47.00
C 13.67 47.49 9.20 52.71 8.00 54.00
M 45.00 60.00 
C 48.12 64.46 43.34 75.63 45.00 81.00 C 46.66 86.37 44.65 94.22 40.30 97.30 C 35.94 100.38 32.37 103.93 31.00 109.00
C 30.45 112.83 32.70 120.30 30.00 123.00
C 22.13 130.87 18.14 116.82 20.00 110.00 C 21.86 103.18 19.04 92.55 20.00 85.00 C 20.96 77.45 19.30 67.75 20.00 60.00
C 21.98 57.94 29.02 58.78 32.00 59.00 C 34.98 59.22 43.26 57.51 45.00 60.00 Z"/>
</g>
<g fill="None" fill-opacity="0.0" stroke="#000000" stroke-opacity="1.00" stroke-width="0.3"><path d="
M 65.00 138.00 
C 76.64 135.52 91.68 142.09 102.25 136.25 C 112.81 130.41 111.06 115.94 110.00 105.00 C 108.94 94.06 124.96 90.93 124.00 80.00 C 123.04 69.07 127.73 54.60 116.25 48.75 C 104.76 42.91 91.45 49.48 79.00 47.00
C 77.83 57.32 80.56 72.13 79.00 82.00 C 77.44 91.87 83.81 106.51 74.70 112.70 C 65.58 118.88 62.77 126.17 65.00 138.00
M 95.00 124.00 
C 90.00 124.00 85.00 124.00 80.00 124.00
C 74.02 109.30 90.06 108.80 93.32 98.32 C 96.58 87.84 92.29 71.26 94.00 60.00
C 107.45 55.08 110.48 66.19 109.00 76.00 C 107.52 85.81 112.14 95.37 102.25 100.25 C 92.36 105.13 95.67 114.88 95.00 124.00 Z"/>
</g>
<g fill="None" fill-opacity="0.0" stroke="#000000" stroke-opacity="1.00" stroke-width="0.3"><path d="
M 130.00 138.00 
C 141.64 135.52 156.68 142.09 167.25 136.25 C 177.81 130.41 176.06 115.94 175.00 105.00 C 173.94 94.06 189.96 90.93 189.00 80.00 C 188.04 69.07 192.73 54.60 181.25 48.75 C 169.76 42.91 156.45 49.48 144.00 47.00
C 142.83 57.32 145.56 72.13 144.00 82.00 C 142.44 91.87 148.81 106.51 139.70 112.70 C 130.58 118.88 127.77 126.17 130.00 138.00
M 160.00 124.00 
C 155.00 124.00 150.00 124.00 145.00 124.00
C 139.02 109.30 155.06 108.80 158.32 98.32 C 161.58 87.84 157.29 71.26 159.00 60.00
C 172.45 55.08 175.48 66.19 174.00 76.00 C 172.52 85.81 177.14 95.37 167.25 100.25 C 157.36 105.13 160.67 114.88 160.00 124.00 Z"/>
</g>
<g fill="None" fill-opacity="0.0" stroke="#2F3030" stroke-opacity="1.00" stroke-width="0.3"><path d="
M 207.00 48.00 
C 211.67 48.00 216.33 48.00 221.00 48.00
C 219.70 46.15 208.34 46.09 207.00 48.00 Z"/>
</g>
<g fill="None" fill-opacity="0.0" stroke="#3C3C3C" stroke-opacity="1.00" stroke-width="0.3"><path d="
M 236.00 48.00 
C 250.67 48.00 265.33 48.00 280.00 48.00
C 277.83 44.91 262.02 46.98 258.00 47.00 C 253.98 47.02 238.20 44.86 236.00 48.00 Z"/>
</g>
<g fill="None" fill-opacity="0.0" stroke="#3F3F3F" stroke-opacity="1.00" stroke-width="0.3"><path d="
M 289.00 48.00 
C 293.22 49.38 298.67 46.97 303.00 48.00
C 300.56 45.83 289.33 46.72 289.00 48.00 Z"/>
</g>
<g fill="None" fill-opacity="0.0" stroke="#000000" stroke-opacity="1.00" stroke-width="0.3"><path d="
M 303.00 48.00 
C 298.67 46.97 293.22 49.38 289.00 48.00
C 287.75 52.88 293.80 59.35 294.68 64.32 C 295.56 69.29 298.83 75.69 300.23 80.77 C 301.63 85.85 304.55 90.88 306.00 96.00
C 309.12 107.04 308.09 124.99 307.00 137.00
C 311.33 137.00 315.67 137.00 320.00 137.00
C 320.14 120.94 318.17 101.30 324.07 87.07 C 329.98 72.85 333.41 61.28 338.00 47.00
C 328.08 44.18 321.71 48.70 320.32 57.32 C 318.94 65.94 315.40 70.40 313.00 78.00
C 310.22 73.96 310.61 66.93 307.93 63.07 C 305.24 59.22 306.26 50.90 303.00 48.00 Z"/>
</g>
<g fill="None" fill-opacity="0.0" stroke="#000000" stroke-opacity="1.00" stroke-width="0.3"><path d="
M 207.00 137.00 
C 211.67 137.00 216.33 137.00 221.00 137.00
C 223.75 133.07 219.84 123.99 221.00 119.00 C 222.16 114.01 220.66 106.39 221.00 101.00 C 221.34 95.61 221.26 88.38 221.00 83.00 C 220.74 77.62 222.02 69.95 221.00 65.00 C 219.98 60.05 223.66 51.80 221.00 48.00
C 216.33 48.00 211.67 48.00 207.00 48.00
C 204.25 51.93 208.16 61.01 207.00 66.00 C 205.84 70.99 207.34 78.61 207.00 84.00 C 206.66 89.39 206.74 96.62 207.00 102.00 C 207.26 107.38 205.98 115.05 207.00 120.00 C 208.02 124.95 204.34 133.20 207.00 137.00 Z"/>
</g>
<g fill="None" fill-opacity="0.0" stroke="#000000" stroke-opacity="1.00" stroke-width="0.3"><path d="
M 251.00 137.00 
C 255.67 137.00 260.33 137.00 265.00 137.00
C 265.00 111.33 265.00 85.67 265.00 60.00
C 270.00 60.00 275.00 60.00 280.00 60.00
C 278.59 56.99 281.88 50.68 280.00 48.00
C 265.33 48.00 250.67 48.00 236.00 48.00
C 236.00 52.00 236.00 56.00 236.00 60.00
C 241.00 60.00 246.00 60.00 251.00 60.00
C 251.23 66.36 250.69 73.74 251.00 80.00 C 251.31 86.26 250.38 93.04 251.00 99.00 C 251.62 104.96 249.65 112.58 251.00 118.00 C 252.35 123.42 248.01 132.73 251.00 137.00 Z"/>
</g>
<g fill="None" fill-opacity="0.0" stroke="#383939" stroke-opacity="1.00" stroke-width="0.3"><path d="
M 11.00 133.00 
C 3.66 124.05 6.68 107.82 7.00 96.00 C 7.32 84.18 4.51 67.72 7.00 56.00
C 3.04 63.19 7.26 74.39 6.00 83.00 C 4.74 91.61 6.87 102.12 6.00 111.00 C 5.13 119.88 5.06 126.82 11.00 133.00 Z"/>
</g>
<g fill="None" fill-opacity="0.0" stroke="#474747" stroke-opacity="1.00" stroke-width="0.3"><path d="
M 20.00 60.00 
C 20.00 59.96 21.00 60.00 21.00 60.00
C 29.00 60.00 37.00 60.00 45.00 60.00
C 43.26 57.51 34.98 59.22 32.00 59.00 C 29.02 58.78 21.98 57.94 20.00 60.00 Z"/>
</g>
<g fill="None" fill-opacity="0.0" stroke="#A9A9A9" stroke-opacity="1.00" stroke-width="0.3"><path d="
M 30.00 123.00 
C 27.00 123.00 24.00 123.00 21.00 123.00
C 21.00 102.00 21.00 81.00 21.00 60.00
C 21.00 60.00 20.00 59.96 20.00 60.00
C 19.30 67.75 20.96 77.45 20.00 85.00 C 19.04 92.55 21.86 103.18 20.00 110.00 C 18.14 116.82 22.13 130.87 30.00 123.00 Z"/>
</g>
<g fill="None" fill-opacity="0.0" stroke="#000000" stroke-opacity="0.00" stroke-width="0.3"><path d="
M 30.00 123.00 
C 29.73 118.25 29.91 113.00 31.00 109.00
C 32.37 103.93 35.94 100.38 40.30 97.30 C 44.65 94.22 46.66 86.37 45.00 81.00 C 43.34 75.63 48.12 64.46 45.00 60.00
C 37.00 60.00 29.00 60.00 21.00 60.00
C 21.00 81.00 21.00 102.00 21.00 123.00
C 24.00 123.00 27.00 123.00 30.00 123.00 Z"/>
</g>
<g fill="None" fill-opacity="0.0" stroke="#000000" stroke-opacity="0.00" stroke-width="0.3"><path d="
M 95.00 124.00 
C 95.67 114.88 92.36 105.13 102.25 100.25 C 112.14 95.37 107.52 85.81 109.00 76.00 C 110.48 66.19 107.45 55.08 94.00 60.00
C 92.29 71.26 96.58 87.84 93.32 98.32 C 90.06 108.80 74.02 109.30 80.00 124.00
C 85.00 124.00 90.00 124.00 95.00 124.00 Z"/>
</g>
<g fill="None" fill-opacity="0.0" stroke="#000000" stroke-opacity="0.00" stroke-width="0.3"><path d="
M 160.00 124.00 
C 160.67 114.88 157.36 105.13 167.25 100.25 C 177.14 95.37 172.52 85.81 174.00 76.00 C 175.48 66.19 172.45 55.08 159.00 60.00
C 157.29 71.26 161.58 87.84 158.32 98.32 C 155.06 108.80 139.02 109.30 145.00 124.00
C 150.00 124.00 155.00 124.00 160.00 124.00 Z"/>
</g>
<g fill="None" fill-opacity="0.0" stroke="#303030" stroke-opacity="1.00" stroke-width="0.3"><path d="
M 306.00 137.00 
C 306.00 137.04 307.00 137.00 307.00 137.00
C 308.09 124.99 309.12 107.04 306.00 96.00
C 308.03 109.32 304.78 123.56 306.00 137.00 Z"/>
</g>
<g fill="None" fill-opacity="0.0" stroke="#404040" stroke-opacity="1.00" stroke-width="0.3"><path d="
M 36.00 137.00 
C 50.41 130.26 42.93 113.25 45.00 101.00
C 42.15 110.37 49.19 132.13 36.00 137.00 Z"/>
</g>
<g fill="None" fill-opacity="0.0" stroke="#5B5B5B" stroke-opacity="1.00" stroke-width="0.3"><path d="
M 30.00 123.00 
C 32.70 120.30 30.45 112.83 31.00 109.00
C 29.91 113.00 29.73 118.25 30.00 123.00 Z"/>
</g>
<g fill="None" fill-opacity="0.0" stroke="#989898" stroke-opacity="1.00" stroke-width="0.3"><path d="
M 36.00 137.00 
C 32.42 138.32 17.52 138.45 14.00 137.00
C 18.04 139.46 31.77 138.98 36.00 137.00 Z"/>
</g>
<g fill="None" fill-opacity="0.0" stroke="#888888" stroke-opacity="1.00" stroke-width="0.3"><path d="
M 221.00 137.00 
C 216.33 137.00 211.67 137.00 207.00 137.00
C 208.30 138.85 219.66 138.91 221.00 137.00 Z"/>
</g>
<g fill="None" fill-opacity="0.0" stroke="#858585" stroke-opacity="1.00" stroke-width="0.3"><path d="
M 265.00 137.00 
C 260.33 137.00 255.67 137.00 251.00 137.00
C 252.30 138.85 263.66 138.91 265.00 137.00 Z"/>
</g>
<g fill="None" fill-opacity="0.0" stroke="#848484" stroke-opacity="1.00" stroke-width="0.3"><path d="
M 320.00 137.00 
C 315.67 137.00 311.33 137.00 307.00 137.00
C 307.00 137.00 306.00 137.04 306.00 137.00
C 307.59 138.66 318.52 139.11 320.00 137.00 Z"/>
</g>
<g fill="#000000" fill-opacity="0.00" stroke="None">
<path d="
M 0.00 147.00 
L 347.00 147.00
L 347.00 0.00
L 0.00 0.00
L 0.00 147.00
M 224.00 18.00 
C 218.32 23.37 215.01 31.20 210.00 37.00
C 207.54 33.38 215.14 21.98 206.00 24.00
C 209.72 16.97 215.35 10.65 220.00 4.00
C 221.94 8.46 215.31 18.06 224.00 18.00
M 45.00 101.00 
C 42.93 113.25 50.41 130.26 36.00 137.00
C 31.77 138.98 18.04 139.46 14.00 137.00
C 12.91 136.34 11.79 133.96 11.00 133.00
C 5.06 126.82 5.13 119.88 6.00 111.00 C 6.87 102.12 4.74 91.61 6.00 83.00 C 7.26 74.39 3.04 63.19 7.00 56.00
C 7.35 55.36 7.64 54.59 8.00 54.00
C 9.27 51.91 12.62 47.71 15.00 47.00
C 22.44 44.77 35.79 48.63 43.00 47.00 C 50.21 45.37 59.53 51.64 59.00 59.00 C 58.47 66.37 61.27 79.78 58.67 86.67 C 56.07 93.56 47.36 93.22 45.00 101.00
M 65.00 138.00 
C 62.77 126.17 65.58 118.88 74.70 112.70 C 83.81 106.51 77.44 91.87 79.00 82.00 C 80.56 72.13 77.83 57.32 79.00 47.00
C 91.45 49.48 104.76 42.91 116.25 48.75 C 127.73 54.60 123.04 69.07 124.00 80.00 C 124.96 90.93 108.94 94.06 110.00 105.00 C 111.06 115.94 112.81 130.41 102.25 136.25 C 91.68 142.09 76.64 135.52 65.00 138.00
M 130.00 138.00 
C 127.77 126.17 130.58 118.88 139.70 112.70 C 148.81 106.51 142.44 91.87 144.00 82.00 C 145.56 72.13 142.83 57.32 144.00 47.00
C 156.45 49.48 169.76 42.91 181.25 48.75 C 192.73 54.60 188.04 69.07 189.00 80.00 C 189.96 90.93 173.94 94.06 175.00 105.00 C 176.06 115.94 177.81 130.41 167.25 136.25 C 156.68 142.09 141.64 135.52 130.00 138.00
M 221.00 48.00 
C 223.66 51.80 219.98 60.05 221.00 65.00 C 222.02 69.95 220.74 77.62 221.00 83.00 C 221.26 88.38 221.34 95.61 221.00 101.00 C 220.66 106.39 222.16 114.01 221.00 119.00 C 219.84 123.99 223.75 133.07 221.00 137.00
C 219.66 138.91 208.30 138.85 207.00 137.00
C 204.34 133.20 208.02 124.95 207.00 120.00 C 205.98 115.05 207.26 107.38 207.00 102.00 C 206.74 96.62 206.66 89.39 207.00 84.00 C 207.34 78.61 205.84 70.99 207.00 66.00 C 208.16 61.01 204.25 51.93 207.00 48.00
C 208.34 46.09 219.70 46.15 221.00 48.00
M 280.00 48.00 
C 281.88 50.68 278.59 56.99 280.00 60.00
C 275.00 60.00 270.00 60.00 265.00 60.00
C 265.00 85.67 265.00 111.33 265.00 137.00
C 263.66 138.91 252.30 138.85 251.00 137.00
C 248.01 132.73 252.35 123.42 251.00 118.00 C 249.65 112.58 251.62 104.96 251.00 99.00 C 250.38 93.04 251.31 86.26 251.00 80.00 C 250.69 73.74 251.23 66.36 251.00 60.00
C 246.00 60.00 241.00 60.00 236.00 60.00
C 236.00 56.00 236.00 52.00 236.00 48.00
C 238.20 44.86 253.98 47.02 258.00 47.00 C 262.02 46.98 277.83 44.91 280.00 48.00
M 303.00 48.00 
C 306.26 50.90 305.24 59.22 307.93 63.07 C 310.61 66.93 310.22 73.96 313.00 78.00
C 315.40 70.40 318.94 65.94 320.32 57.32 C 321.71 48.70 328.08 44.18 338.00 47.00
C 333.41 61.28 329.98 72.85 324.07 87.07 C 318.17 101.30 320.14 120.94 320.00 137.00
C 318.52 139.11 307.59 138.66 306.00 137.00
C 304.78 123.56 308.03 109.32 306.00 96.00
C 304.55 90.88 301.63 85.85 300.23 80.77 C 298.83 75.69 295.56 69.29 294.68 64.32 C 293.80 59.35 287.75 52.88 289.00 48.00
C 289.33 46.72 300.56 45.83 303.00 48.00 Z"/>
</g>
<g fill="#060606" fill-opacity="1.00" stroke="None">
<path d="
M 224.00 18.00 
C 215.31 18.06 221.94 8.46 220.00 4.00
C 215.35 10.65 209.72 16.97 206.00 24.00
C 215.14 21.98 207.54 33.38 210.00 37.00
C 215.01 31.20 218.32 23.37 224.00 18.00 Z"/>
</g>
<g fill="#989898" fill-opacity="1.00" stroke="None">
<path d="
M 8.00 54.00 
C 9.20 52.71 13.67 47.49 15.00 47.00
C 12.62 47.71 9.27 51.91 8.00 54.00 Z"/>
</g>
<g fill="#000000" fill-opacity="1.00" stroke="None">
<path d="
M 8.00 54.00 
C 7.64 54.59 7.35 55.36 7.00 56.00
C 4.51 67.72 7.32 84.18 7.00 96.00 C 6.68 107.82 3.66 124.05 11.00 133.00
C 11.79 133.96 12.91 136.34 14.00 137.00
C 17.52 138.45 32.42 138.32 36.00 137.00
C 49.19 132.13 42.15 110.37 45.00 101.00
C 47.36 93.22 56.07 93.56 58.67 86.67 C 61.27 79.78 58.47 66.37 59.00 59.00 C 59.53 51.64 50.21 45.37 43.00 47.00 C 35.79 48.63 22.44 44.77 15.00 47.00
C 13.67 47.49 9.20 52.71 8.00 54.00
M 45.00 60.00 
C 48.12 64.46 43.34 75.63 45.00 81.00 C 46.66 86.37 44.65 94.22 40.30 97.30 C 35.94 100.38 32.37 103.93 31.00 109.00
C 30.45 112.83 32.70 120.30 30.00 123.00
C 22.13 130.87 18.14 116.82 20.00 110.00 C 21.86 103.18 19.04 92.55 20.00 85.00 C 20.96 77.45 19.30 67.75 20.00 60.00
C 21.98 57.94 29.02 58.78 32.00 59.00 C 34.98 59.22 43.26 57.51 45.00 60.00 Z"/>
</g>
<g fill="#000000" fill-opacity="1.00" stroke="None">
<path d="
M 65.00 138.00 
C 76.64 135.52 91.68 142.09 102.25 136.25 C 112.81 130.41 111.06 115.94 110.00 105.00 C 108.94 94.06 124.96 90.93 124.00 80.00 C 123.04 69.07 127.73 54.60 116.25 48.75 C 104.76 42.91 91.45 49.48 79.00 47.00
C 77.83 57.32 80.56 72.13 79.00 82.00 C 77.44 91.87 83.81 106.51 74.70 112.70 C 65.58 118.88 62.77 126.17 65.00 138.00
M 95.00 124.00 
C 90.00 124.00 85.00 124.00 80.00 124.00
C 74.02 109.30 90.06 108.80 93.32 98.32 C 96.58 87.84 92.29 71.26 94.00 60.00
C 107.45 55.08 110.48 66.19 109.00 76.00 C 107.52 85.81 112.14 95.37 102.25 100.25 C 92.36 105.13 95.67 114.88 95.00 124.00 Z"/>
</g>
<g fill="#000000" fill-opacity="1.00" stroke="None">
<path d="
M 130.00 138.00 
C 141.64 135.52 156.68 142.09 167.25 136.25 C 177.81 130.41 176.06 115.94 175.00 105.00 C 173.94 94.06 189.96 90.93 189.00 80.00 C 188.04 69.07 192.73 54.60 181.25 48.75 C 169.76 42.91 156.45 49.48 144.00 47.00
C 142.83 57.32 145.56 72.13 144.00 82.00 C 142.44 91.87 148.81 106.51 139.70 112.70 C 130.58 118.88 127.77 126.17 130.00 138.00
M 160.00 124.00 
C 155.00 124.00 150.00 124.00 145.00 124.00
C 139.02 109.30 155.06 108.80 158.32 98.32 C 161.58 87.84 157.29 71.26 159.00 60.00
C 172.45 55.08 175.48 66.19 174.00 76.00 C 172.52 85.81 177.14 95.37 167.25 100.25 C 157.36 105.13 160.67 114.88 160.00 124.00 Z"/>
</g>
<g fill="#2F3030" fill-opacity="1.00" stroke="None">
<path d="
M 207.00 48.00 
C 211.67 48.00 216.33 48.00 221.00 48.00
C 219.70 46.15 208.34 46.09 207.00 48.00 Z"/>
</g>
<g fill="#3C3C3C" fill-opacity="1.00" stroke="None">
<path d="
M 236.00 48.00 
C 250.67 48.00 265.33 48.00 280.00 48.00
C 277.83 44.91 262.02 46.98 258.00 47.00 C 253.98 47.02 238.20 44.86 236.00 48.00 Z"/>
</g>
<g fill="#3F3F3F" fill-opacity="1.00" stroke="None">
<path d="
M 289.00 48.00 
C 293.22 49.38 298.67 46.97 303.00 48.00
C 300.56 45.83 289.33 46.72 289.00 48.00 Z"/>
</g>
<g fill="#000000" fill-opacity="1.00" stroke="None">
<path d="
M 303.00 48.00 
C 298.67 46.97 293.22 49.38 289.00 48.00
C 287.75 52.88 293.80 59.35 294.68 64.32 C 295.56 69.29 298.83 75.69 300.23 80.77 C 301.63 85.85 304.55 90.88 306.00 96.00
C 309.12 107.04 308.09 124.99 307.00 137.00
C 311.33 137.00 315.67 137.00 320.00 137.00
C 320.14 120.94 318.17 101.30 324.07 87.07 C 329.98 72.85 333.41 61.28 338.00 47.00
C 328.08 44.18 321.71 48.70 320.32 57.32 C 318.94 65.94 315.40 70.40 313.00 78.00
C 310.22 73.96 310.61 66.93 307.93 63.07 C 305.24 59.22 306.26 50.90 303.00 48.00 Z"/>
</g>
<g fill="#000000" fill-opacity="1.00" stroke="None">
<path d="
M 207.00 137.00 
C 211.67 137.00 216.33 137.00 221.00 137.00
C 223.75 133.07 219.84 123.99 221.00 119.00 C 222.16 114.01 220.66 106.39 221.00 101.00 C 221.34 95.61 221.26 88.38 221.00 83.00 C 220.74 77.62 222.02 69.95 221.00 65.00 C 219.98 60.05 223.66 51.80 221.00 48.00
C 216.33 48.00 211.67 48.00 207.00 48.00
C 204.25 51.93 208.16 61.01 207.00 66.00 C 205.84 70.99 207.34 78.61 207.00 84.00 C 206.66 89.39 206.74 96.62 207.00 102.00 C 207.26 107.38 205.98 115.05 207.00 120.00 C 208.02 124.95 204.34 133.20 207.00 137.00 Z"/>
</g>
<g fill="#000000" fill-opacity="1.00" stroke="None">
<path d="
M 251.00 137.00 
C 255.67 137.00 260.33 137.00 265.00 137.00
C 265.00 111.33 265.00 85.67 265.00 60.00
C 270.00 60.00 275.00 60.00 280.00 60.00
C 278.59 56.99 281.88 50.68 280.00 48.00
C 265.33 48.00 250.67 48.00 236.00 48.00
C 236.00 52.00 236.00 56.00 236.00 60.00
C 241.00 60.00 246.00 60.00 251.00 60.00
C 251.23 66.36 250.69 73.74 251.00 80.00 C 251.31 86.26 250.38 93.04 251.00 99.00 C 251.62 104.96 249.65 112.58 251.00 118.00 C 252.35 123.42 248.01 132.73 251.00 137.00 Z"/>
</g>
<g fill="#383939" fill-opacity="1.00" stroke="None">
<path d="
M 11.00 133.00 
C 3.66 124.05 6.68 107.82 7.00 96.00 C 7.32 84.18 4.51 67.72 7.00 56.00
C 3.04 63.19 7.26 74.39 6.00 83.00 C 4.74 91.61 6.87 102.12 6.00 111.00 C 5.13 119.88 5.06 126.82 11.00 133.00 Z"/>
</g>
<g fill="#474747" fill-opacity="1.00" stroke="None">
<path d="
M 20.00 60.00 
C 20.00 59.96 21.00 60.00 21.00 60.00
C 29.00 60.00 37.00 60.00 45.00 60.00
C 43.26 57.51 34.98 59.22 32.00 59.00 C 29.02 58.78 21.98 57.94 20.00 60.00 Z"/>
</g>
<g fill="#A9A9A9" fill-opacity="1.00" stroke="None">
<path d="
M 30.00 123.00 
C 27.00 123.00 24.00 123.00 21.00 123.00
C 21.00 102.00 21.00 81.00 21.00 60.00
C 21.00 60.00 20.00 59.96 20.00 60.00
C 19.30 67.75 20.96 77.45 20.00 85.00 C 19.04 92.55 21.86 103.18 20.00 110.00 C 18.14 116.82 22.13 130.87 30.00 123.00 Z"/>
</g>
<g fill="#000000" fill-opacity="0.00" stroke="None">
<path d="
M 30.00 123.00 
C 29.73 118.25 29.91 113.00 31.00 109.00
C 32.37 103.93 35.94 100.38 40.30 97.30 C 44.65 94.22 46.66 86.37 45.00 81.00 C 43.34 75.63 48.12 64.46 45.00 60.00
C 37.00 60.00 29.00 60.00 21.00 60.00
C 21.00 81.00 21.00 102.00 21.00 123.00
C 24.00 123.00 27.00 123.00 30.00 123.00 Z"/>
</g>
<g fill="#000000" fill-opacity="0.00" stroke="None">
<path d="
M 95.00 124.00 
C 95.67 114.88 92.36 105.13 102.25 100.25 C 112.14 95.37 107.52 85.81 109.00 76.00 C 110.48 66.19 107.45 55.08 94.00 60.00
C 92.29 71.26 96.58 87.84 93.32 98.32 C 90.06 108.80 74.02 109.30 80.00 124.00
C 85.00 124.00 90.00 124.00 95.00 124.00 Z"/>
</g>
<g fill="#000000" fill-opacity="0.00" stroke="None">
<path d="
M 160.00 124.00 
C 160.67 114.88 157.36 105.13 167.25 100.25 C 177.14 95.37 172.52 85.81 174.00 76.00 C 175.48 66.19 172.45 55.08 159.00 60.00
C 157.29 71.26 161.58 87.84 158.32 98.32 C 155.06 108.80 139.02 109.30 145.00 124.00
C 150.00 124.00 155.00 124.00 160.00 124.00 Z"/>
</g>
<g fill="#303030" fill-opacity="1.00" stroke="None">
<path d="
M 306.00 137.00 
C 306.00 137.04 307.00 137.00 307.00 137.00
C 308.09 124.99 309.12 107.04 306.00 96.00
C 308.03 109.32 304.78 123.56 306.00 137.00 Z"/>
</g>
<g fill="#404040" fill-opacity="1.00" stroke="None">
<path d="
M 36.00 137.00 
C 50.41 130.26 42.93 113.25 45.00 101.00
C 42.15 110.37 49.19 132.13 36.00 137.00 Z"/>
</g>
<g fill="#5B5B5B" fill-opacity="1.00" stroke="None">
<path d="
M 30.00 123.00 
C 32.70 120.30 30.45 112.83 31.00 109.00
C 29.91 113.00 29.73 118.25 30.00 123.00 Z"/>
</g>
<g fill="#989898" fill-opacity="1.00" stroke="None">
<path d="
M 36.00 137.00 
C 32.42 138.32 17.52 138.45 14.00 137.00
C 18.04 139.46 31.77 138.98 36.00 137.00 Z"/>
</g>
<g fill="#888888" fill-opacity="1.00" stroke="None">
<path d="
M 221.00 137.00 
C 216.33 137.00 211.67 137.00 207.00 137.00
C 208.30 138.85 219.66 138.91 221.00 137.00 Z"/>
</g>
<g fill="#858585" fill-opacity="1.00" stroke="None">
<path d="
M 265.00 137.00 
C 260.33 137.00 255.67 137.00 251.00 137.00
C 252.30 138.85 263.66 138.91 265.00 137.00 Z"/>
</g>
<g fill="#848484" fill-opacity="1.00" stroke="None">
<path d="
M 320.00 137.00 
C 315.67 137.00 311.33 137.00 307.00 137.00
C 307.00 137.00 306.00 137.04 306.00 137.00
C 307.59 138.66 318.52 139.11 320.00 137.00 Z"/>
</g>
</svg>